<svg width="121" height="25" viewBox="0 0 121 25" fill="none" xmlns="http://www.w3.org/2000/svg">
<path d="M0.464 24V1.664H15.664V5.984H5.328V10.56H14.192V14.848H5.328V19.68H15.664V24H0.464ZM19.1335 16.544V11.936H28.6375V16.544H19.1335Z" fill="#021526"/>
<path d="M38.2478 24.384C36.6264 24.384 35.2611 24.128 34.1518 23.616C33.0424 23.0827 32.0504 22.336 31.1758 21.376L33.9598 18.56C34.5571 19.2213 35.2184 19.744 35.9438 20.128C36.6691 20.512 37.4904 20.704 38.4078 20.704C39.3464 20.704 39.9971 20.5653 40.3598 20.288C40.7224 19.9893 40.9038 19.5947 40.9038 19.104C40.9038 18.3147 40.3384 17.8453 39.2078 17.696L37.3838 17.472C33.6078 17.0027 31.7198 15.2747 31.7198 12.288C31.7198 11.4773 31.8691 10.7413 32.1678 10.08C32.4878 9.39733 32.9251 8.82133 33.4798 8.352C34.0558 7.86133 34.7384 7.488 35.5278 7.232C36.3384 6.95467 37.2451 6.816 38.2478 6.816C39.1224 6.816 39.8904 6.88 40.5518 7.008C41.2344 7.11467 41.8318 7.28533 42.3438 7.52C42.8771 7.73333 43.3571 8.01067 43.7838 8.352C44.2318 8.672 44.6691 9.03467 45.0958 9.44L42.3758 12.224C41.8424 11.6907 41.2344 11.2747 40.5518 10.976C39.8904 10.656 39.2078 10.496 38.5038 10.496C37.6931 10.496 37.1171 10.624 36.7758 10.88C36.4344 11.136 36.2638 11.4773 36.2638 11.904C36.2638 12.352 36.3811 12.704 36.6158 12.96C36.8718 13.1947 37.3411 13.3653 38.0238 13.472L39.9118 13.728C43.6024 14.2187 45.4478 15.904 45.4478 18.784C45.4478 19.5947 45.2771 20.3413 44.9358 21.024C44.5944 21.7067 44.1038 22.304 43.4638 22.816C42.8451 23.3067 42.0878 23.6907 41.1918 23.968C40.3171 24.2453 39.3358 24.384 38.2478 24.384ZM48.6768 0.32H53.4128V10.048H53.6048C53.9034 9.17333 54.4261 8.416 55.1728 7.776C55.9194 7.136 56.9541 6.816 58.2768 6.816C60.0048 6.816 61.3061 7.392 62.1808 8.544C63.0768 9.696 63.5248 11.3387 63.5248 13.472V24H58.7888V13.856C58.7888 12.768 58.6181 11.968 58.2768 11.456C57.9354 10.9227 57.3274 10.656 56.4528 10.656C56.0688 10.656 55.6954 10.7093 55.3328 10.816C54.9701 10.9013 54.6394 11.0507 54.3408 11.264C54.0634 11.4773 53.8394 11.744 53.6688 12.064C53.4981 12.3627 53.4128 12.7147 53.4128 13.12V24H48.6768V0.32ZM74.7473 24.384C73.4673 24.384 72.3259 24.1813 71.3233 23.776C70.3206 23.3493 69.4673 22.7627 68.7633 22.016C68.0806 21.248 67.5579 20.32 67.1953 19.232C66.8539 18.144 66.6833 16.928 66.6833 15.584C66.6833 14.2613 66.8539 13.0667 67.1953 12C67.5366 10.912 68.0379 9.984 68.6993 9.216C69.3819 8.448 70.2139 7.86133 71.1953 7.456C72.1766 7.02933 73.2966 6.816 74.5553 6.816C75.9419 6.816 77.1259 7.05067 78.1073 7.52C79.1099 7.98933 79.9206 8.61867 80.5393 9.408C81.1793 10.1973 81.6379 11.1147 81.9153 12.16C82.2139 13.184 82.3633 14.2613 82.3633 15.392V16.8H71.5793V17.056C71.5793 18.1653 71.8779 19.0507 72.4753 19.712C73.0726 20.352 74.0113 20.672 75.2913 20.672C76.2726 20.672 77.0726 20.48 77.6913 20.096C78.3099 19.6907 78.8859 19.2107 79.4193 18.656L81.7873 21.6C81.0406 22.4747 80.0593 23.1573 78.8433 23.648C77.6486 24.1387 76.2833 24.384 74.7473 24.384ZM74.6513 10.304C73.6913 10.304 72.9339 10.624 72.3793 11.264C71.8459 11.8827 71.5793 12.7147 71.5793 13.76V14.016H77.4673V13.728C77.4673 12.704 77.2326 11.8827 76.7633 11.264C76.3153 10.624 75.6113 10.304 74.6513 10.304ZM85.708 0.32H90.444V10.016H90.604C90.8387 9.07733 91.372 8.30933 92.204 7.712C93.0573 7.11467 94.028 6.816 95.116 6.816C97.2493 6.816 98.86 7.56267 99.948 9.056C101.036 10.5493 101.58 12.7253 101.58 15.584C101.58 18.4427 101.036 20.6293 99.948 22.144C98.86 23.6373 97.2493 24.384 95.116 24.384C94.5613 24.384 94.0387 24.2987 93.548 24.128C93.0573 23.9787 92.6093 23.7653 92.204 23.488C91.82 23.1893 91.4893 22.848 91.212 22.464C90.9347 22.0587 90.732 21.632 90.604 21.184H90.444V24H85.708V0.32ZM93.548 20.544C94.444 20.544 95.18 20.2347 95.756 19.616C96.3533 18.976 96.652 18.1227 96.652 17.056V14.144C96.652 13.0773 96.3533 12.2347 95.756 11.616C95.18 10.976 94.444 10.656 93.548 10.656C92.652 10.656 91.9053 10.88 91.308 11.328C90.732 11.7547 90.444 12.352 90.444 13.12V18.08C90.444 18.848 90.732 19.456 91.308 19.904C91.9053 20.3307 92.652 20.544 93.548 20.544ZM117.593 24C116.739 24 116.025 23.7333 115.449 23.2C114.894 22.6667 114.542 21.952 114.393 21.056H114.201C113.945 22.144 113.379 22.976 112.505 23.552C111.63 24.1067 110.553 24.384 109.273 24.384C107.587 24.384 106.297 23.936 105.401 23.04C104.505 22.144 104.057 20.96 104.057 19.488C104.057 17.7173 104.697 16.4053 105.977 15.552C107.278 14.6773 109.038 14.24 111.257 14.24H113.913V13.184C113.913 12.3733 113.699 11.7333 113.273 11.264C112.846 10.7733 112.131 10.528 111.129 10.528C110.19 10.528 109.443 10.7307 108.889 11.136C108.334 11.5413 107.875 12 107.513 12.512L104.697 10.016C105.379 9.01333 106.233 8.23467 107.257 7.68C108.302 7.104 109.71 6.816 111.481 6.816C113.87 6.816 115.662 7.33867 116.857 8.384C118.051 9.42933 118.649 10.9547 118.649 12.96V20.32H120.217V24H117.593ZM111.033 21.088C111.822 21.088 112.494 20.9173 113.049 20.576C113.625 20.2347 113.913 19.68 113.913 18.912V16.928H111.609C109.753 16.928 108.825 17.5573 108.825 18.816V19.296C108.825 19.9147 109.017 20.3733 109.401 20.672C109.785 20.9493 110.329 21.088 111.033 21.088Z" fill="#0360D9"/>
</svg>
