<svg width="16" height="16" viewBox="0 0 16 16" fill="none" xmlns="http://www.w3.org/2000/svg">
<g id="Group 1">
<g id="Group">
<path id="Vector" fill-rule="evenodd" clip-rule="evenodd" d="M8 15.2C11.9764 15.2 15.2 11.9764 15.2 8C15.2 4.0236 11.9764 0.8 8 0.8C4.0236 0.8 0.8 4.0236 0.8 8C0.8 11.9764 4.0236 15.2 8 15.2ZM8 16C12.4184 16 16 12.4184 16 8C16 3.5816 12.4184 0 8 0C3.5816 0 0 3.5816 0 8C0 12.4184 3.5816 16 8 16Z" fill="black"/>
</g>
<path id="Vector_2" d="M8.75 7.42853C8.75 7.2012 8.67098 6.98319 8.53033 6.82244C8.38968 6.6617 8.19891 6.57139 8 6.57139C7.80109 6.57139 7.61032 6.6617 7.46967 6.82244C7.32902 6.98319 7.25 7.2012 7.25 7.42853C7.25 7.65585 7.32902 7.87387 7.46967 8.03461C7.61032 8.19535 7.80109 8.28566 8 8.28566C8.19891 8.28566 8.38968 8.19535 8.53033 8.03461C8.67098 7.87387 8.75 7.65585 8.75 7.42853ZM11 7.42853C11 9.07079 9.4515 10.8662 8.5795 11.7473C8.42006 11.9101 8.21377 12 8 12C7.78623 12 7.57994 11.9101 7.4205 11.7473C6.5485 10.8662 5 9.07079 5 7.42853C5 6.97829 5.0776 6.53245 5.22836 6.11649C5.37913 5.70052 5.6001 5.32256 5.87868 5.00419C6.15726 4.68582 6.48797 4.43328 6.85195 4.26098C7.21593 4.08868 7.60603 4 8 4C8.39397 4 8.78407 4.08868 9.14805 4.26098C9.51203 4.43328 9.84274 4.68582 10.1213 5.00419C10.3999 5.32256 10.6209 5.70052 10.7716 6.11649C10.9224 6.53245 11 6.97829 11 7.42853ZM10.5 7.42853C10.5 6.67077 10.2366 5.94406 9.76777 5.40825C9.29893 4.87244 8.66304 4.57142 8 4.57142C7.33696 4.57142 6.70107 4.87244 6.23223 5.40825C5.76339 5.94406 5.5 6.67077 5.5 7.42853C5.5 8.06166 5.8075 8.79708 6.285 9.53307C6.752 10.2519 7.3285 10.8913 7.7515 11.3193C7.81956 11.3898 7.90814 11.4289 8 11.4289C8.09186 11.4289 8.18044 11.3898 8.2485 11.3193C8.6715 10.8913 9.2485 10.2525 9.715 9.53307C10.1925 8.79708 10.5 8.06166 10.5 7.42853Z" fill="black"/>
</g>
</svg>
