<svg width="16" height="16" viewBox="0 0 16 16" fill="none" xmlns="http://www.w3.org/2000/svg">
<g id="Group">
<path id="Vector" fill-rule="evenodd" clip-rule="evenodd" d="M4.32359 12.2856C7.06159 11.8856 8.94679 11.92 11.6884 12.2996C11.8869 12.3284 12.0684 12.4281 12.1992 12.5802C12.33 12.7323 12.4013 12.9266 12.4 13.1272C12.4 13.3192 12.334 13.5056 12.2148 13.6512C12.007 13.9051 11.7942 14.1548 11.5764 14.4H12.6328C12.6992 14.3208 12.766 14.24 12.8336 14.158C13.0709 13.8671 13.2003 13.5031 13.2 13.1276C13.2 12.3176 12.6088 11.6196 11.798 11.5076C8.99159 11.1192 7.02999 11.082 4.20799 11.4944C3.38879 11.614 2.79999 12.3228 2.79999 13.1384C2.79999 13.5004 2.91799 13.8584 3.14159 14.1484C3.20759 14.234 3.27279 14.318 3.33759 14.4004H4.36839C4.16576 14.1579 3.96812 13.9111 3.77559 13.6604C3.66117 13.5104 3.59945 13.3268 3.59999 13.138C3.59999 12.7072 3.90959 12.346 4.32359 12.2856ZM7.99999 8.40005C8.31516 8.40005 8.62725 8.33797 8.91843 8.21736C9.20961 8.09675 9.47418 7.91997 9.69704 7.69711C9.91991 7.47425 10.0967 7.20967 10.2173 6.91849C10.3379 6.62731 10.4 6.31522 10.4 6.00005C10.4 5.68488 10.3379 5.37279 10.2173 5.08161C10.0967 4.79043 9.91991 4.52585 9.69704 4.30299C9.47418 4.08013 9.20961 3.90335 8.91843 3.78274C8.62725 3.66213 8.31516 3.60005 7.99999 3.60005C7.36347 3.60005 6.75302 3.85291 6.30293 4.30299C5.85284 4.75308 5.59999 5.36353 5.59999 6.00005C5.59999 6.63657 5.85284 7.24702 6.30293 7.69711C6.75302 8.14719 7.36347 8.40005 7.99999 8.40005ZM7.99999 9.20005C8.84868 9.20005 9.66261 8.86291 10.2627 8.26279C10.8628 7.66267 11.2 6.84874 11.2 6.00005C11.2 5.15136 10.8628 4.33742 10.2627 3.73731C9.66261 3.13719 8.84868 2.80005 7.99999 2.80005C7.1513 2.80005 6.33736 3.13719 5.73725 3.73731C5.13713 4.33742 4.79999 5.15136 4.79999 6.00005C4.79999 6.84874 5.13713 7.66267 5.73725 8.26279C6.33736 8.86291 7.1513 9.20005 7.99999 9.20005Z" fill="black"/>
<path id="Vector_2" fill-rule="evenodd" clip-rule="evenodd" d="M8 15.2C11.9764 15.2 15.2 11.9764 15.2 8C15.2 4.0236 11.9764 0.8 8 0.8C4.0236 0.8 0.8 4.0236 0.8 8C0.8 11.9764 4.0236 15.2 8 15.2ZM8 16C12.4184 16 16 12.4184 16 8C16 3.5816 12.4184 0 8 0C3.5816 0 0 3.5816 0 8C0 12.4184 3.5816 16 8 16Z" fill="black"/>
</g>
</svg>
