<svg width="56" height="56" viewBox="0 0 56 56" fill="none" xmlns="http://www.w3.org/2000/svg">
<circle cx="28" cy="28" r="28" fill="#0360D9"/>
<g clip-path="url(#clip0_1_27)">
<path d="M32.742 31.344C33.7103 30.0227 34.144 28.3845 33.9563 26.7571C33.7686 25.1298 32.9734 23.6333 31.7298 22.5671C30.4861 21.5009 28.8857 20.9436 27.2488 21.0067C25.6119 21.0697 24.0592 21.7485 22.9013 22.9073C21.7434 24.066 21.0657 25.6193 21.0038 27.2562C20.9418 28.8932 21.5003 30.4931 22.5674 31.736C23.6345 32.9789 25.1315 33.773 26.759 33.9596C28.3865 34.1461 30.0244 33.7112 31.345 32.742H31.344C31.374 32.782 31.406 32.82 31.442 32.857L35.292 36.707C35.4795 36.8946 35.7339 37.0001 35.9991 37.0002C36.2644 37.0003 36.5189 36.895 36.7065 36.7075C36.8941 36.52 36.9996 36.2656 36.9997 36.0003C36.9998 35.7351 36.8945 35.4806 36.707 35.293L32.857 31.443C32.8212 31.4068 32.7828 31.3734 32.742 31.343V31.344ZM33 27.5C33 28.2222 32.8577 28.9374 32.5813 29.6047C32.3049 30.272 31.8998 30.8783 31.3891 31.3891C30.8784 31.8998 30.2721 32.3049 29.6048 32.5813C28.9375 32.8577 28.2223 33 27.5 33C26.7777 33 26.0625 32.8577 25.3952 32.5813C24.728 32.3049 24.1216 31.8998 23.6109 31.3891C23.1002 30.8783 22.6951 30.272 22.4187 29.6047C22.1423 28.9374 22 28.2222 22 27.5C22 26.0413 22.5795 24.6423 23.6109 23.6109C24.6424 22.5794 26.0413 22 27.5 22C28.9587 22 30.3576 22.5794 31.3891 23.6109C32.4205 24.6423 33 26.0413 33 27.5Z" fill="white"/>
</g>
<defs>
<clipPath id="clip0_1_27">
<rect width="16" height="16" fill="white" transform="translate(21 21)"/>
</clipPath>
</defs>
</svg>
