<svg width="34" height="32" viewBox="0 0 34 32" fill="none" xmlns="http://www.w3.org/2000/svg">
<path id="Star 5" d="M15.1631 1.26548C15.8573 -0.346443 18.1427 -0.346442 18.8369 1.26548L21.9379 8.46632C22.2275 9.13867 22.8612 9.59911 23.5901 9.66672L31.3968 10.3908C33.1443 10.5528 33.8506 12.7265 32.532 13.8848L26.6419 19.0592C26.0919 19.5423 25.8499 20.2873 26.0108 21.0015L27.7346 28.6498C28.1205 30.3619 26.2715 31.7053 24.7624 30.8092L18.0211 26.8063C17.3917 26.4326 16.6083 26.4326 15.9789 26.8063L9.23757 30.8092C7.72851 31.7053 5.87952 30.3619 6.26539 28.6498L7.98918 21.0015C8.15013 20.2873 7.90806 19.5423 7.35809 19.0592L1.46795 13.8848C0.149427 12.7265 0.85568 10.5528 2.60322 10.3908L10.4099 9.66672C11.1388 9.59911 11.7725 9.13867 12.0621 8.46632L15.1631 1.26548Z" fill="#F5BF00"/>
</svg>
